{"title":"Dirty.Grandpa.2016.WEBRip.480p.x264.AAC-VYTO [P2PDL]","uid":14439463,"size":427904762,"categoryP":"video","categoryS":"movies","magnet":"?xt=urn:btih:65d2ff81835b340663069f936627eac5ab59b73e&amp;dn=Dirty.Grandpa.2016.WEBRip.480p.x264.AAC-VYTO+%5BP2PDL%5D&amp;tr=udp%3A%2F%2Ftracker.leechers-paradise.org%3A6969&amp;tr=udp%3A%2F%2Fzer0day.ch%3A1337&amp;tr=udp%3A%2F%2Fopen.demonii.com%3A1337&amp;tr=udp%3A%2F%2Ftracker.coppersurfer.tk%3A6969&amp;tr=udp%3A%2F%2Fexodus.desync.com%3A6969","seeders":0,"leechers":4,"uploader":"VYTOP2PDL","files":7,"time":1461667146,"description":"Dirty.Grandpa.2016.WEBRip.480p.x264.AAC-VYTO\r\n\r\n\r\nGenre: Comedy  \nhttp://www.imdb.com/title/tt1860213/\r\n\r\n\r\nFormat                                   : MPEG-4\r\nFile size                                : 401 MiB\r\nDuration                                 : 1h 49mn\r\nOverall bit rate                         : 512 Kbps\r\n\r\nVideo\r\nFormat                                   : AVC\r\nBit rate                                 : 469 Kbps\r\nWidth                                    : 720 pixels\r\nHeight                                   : 296 pixels\r\nDisplay aspect ratio                     : 2.40:1\r\nFrame rate mode                          : Constant\r\nFrame rate                               : 23.976 fps\r\nBit depth                                : 8 bits\r\nStream size                              : 367 MiB (92%)\r\nWriting library                          : x264 \r\n\r\nAudio\r\nFormat                                   : AAC\r\nBit rate mode                            : Variable\r\nBit rate                                 : 40.0 Kbps\r\nChannel(s)                               : 2 channels\r\nChannel positions                        : Front: L R\r\nSampling rate                            : 48.0 KHz \r\nStream size                              : 31.3 MiB (8%)\r\nLanguage                                 : English\r\n\r\nSubtitle                                 : Yes (English)\r\nSource                                   : UNRATED.720p.WEB-DL-PLAYNOW (Thanks)\r\n\r\nScreen Shots: (Click links to view)\r\n \nhttps://ititli.com/XmF \nhttps://ititli.com/XmJ \nhttps://ititli.com/Xm5 \nhttps://ititli.com/XmB \nhttps://ititli.com/XmN \nhttps://ititli.com/XmP \nhttps://ititli.com/Xmf \nhttps://ititli.com/Xmu \nhttps://ititli.com/Xmv \nhttps://ititli.com/XmR \nhttps://ititli.com/Xmy \nhttps://ititli.com/Xm3\r\n\r\n----------------------------------------------------------------------------------------------------\r\n\r\n\r\nEncoder Notes: Looking For Early Access To Anything You Can Provide WEBDL, DVDScr, DVDR, BluRay,\r\nDirect Audio, Music Releases and Seedboxes. If You Got anything to offer please contact us.\r\n\r\nSupport us by donating BC - 1FgwdzPsd1y25Gea8wP1qni35uGCtmkRCD\r\n\r\nFind us and join us!","torrent":{"xt":"urn:btih:65d2ff81835b340663069f936627eac5ab59b73e","amp;dn":"Dirty.Grandpa.2016.WEBRip.480p.x264.AAC-VYTO+%5BP2PDL%5D","amp;tr":["udp%3A%2F%2Ftracker.leechers-paradise.org%3A6969","udp%3A%2F%2Fzer0day.ch%3A1337","udp%3A%2F%2Fopen.demonii.com%3A1337","udp%3A%2F%2Ftracker.coppersurfer.tk%3A6969","udp%3A%2F%2Fexodus.desync.com%3A6969"],"infoHash":"65d2ff81835b340663069f936627eac5ab59b73e","infoHashBuffer":{"type":"Buffer","data":[101,210,255,129,131,91,52,6,99,6,159,147,102,39,234,197,171,89,183,62]},"announce":[],"urlList":[]}}